<?xml version="1.0" encoding="UTF-8" standalone="no"?>
<svg
   xmlns:dc="http://purl.org/dc/elements/1.1/"
   xmlns:cc="http://creativecommons.org/ns#"
   xmlns:rdf="http://www.w3.org/1999/02/22-rdf-syntax-ns#"
   xmlns:svg="http://www.w3.org/2000/svg"
   xmlns="http://www.w3.org/2000/svg"
   xmlns:sodipodi="http://sodipodi.sourceforge.net/DTD/sodipodi-0.dtd"
   xmlns:inkscape="http://www.inkscape.org/namespaces/inkscape"
   sodipodi:docname="logo.svg"
   inkscape:version="1.0 (4035a4fb49, 2020-05-01)"
   id="svg8"
   version="1.1"
   viewBox="0 0 21.166666 21.166667"
   height="80"
   width="80">
  <defs
     id="defs2">
    <rect
       id="rect857"
       height="48.569941"
       width="46.018601"
       y="-24.851935"
       x="-13.512649" />
  </defs>
  <sodipodi:namedview
     units="px"
     inkscape:window-maximized="1"
     inkscape:window-y="-11"
     inkscape:window-x="-11"
     inkscape:window-height="986"
     inkscape:window-width="1920"
     showgrid="false"
     inkscape:document-rotation="0"
     inkscape:current-layer="text849"
     inkscape:document-units="mm"
     inkscape:cy="-40.002542"
     inkscape:cx="130.71429"
     inkscape:zoom="2.8"
     inkscape:pageshadow="2"
     inkscape:pageopacity="0.0"
     borderopacity="1.0"
     bordercolor="#666666"
     pagecolor="#ffffff"
     id="base" />
  <metadata
     id="metadata5">
    <rdf:RDF>
      <cc:Work
         rdf:about="">
        <dc:format>image/svg+xml</dc:format>
        <dc:type
           rdf:resource="http://purl.org/dc/dcmitype/StillImage" />
        <dc:title></dc:title>
      </cc:Work>
    </rdf:RDF>
  </metadata>
  <g
     id="layer1"
     inkscape:groupmode="layer"
     inkscape:label="Layer 1">
    <text
       style="fill:black;fill-opacity:1;line-height:1.25;stroke:none;font-family:sans-serif;font-style:normal;font-weight:normal;font-size:10.58333333px;white-space:pre;shape-inside:url(#rect857);"
       id="text855"
       xml:space="preserve" />
    <g
       style="font-style:normal;font-weight:normal;font-size:14.0983px;line-height:1.25;font-family:sans-serif;fill:#000000;fill-opacity:1;stroke:none;stroke-width:0.353015;stroke-miterlimit:4;stroke-dasharray:none"
       id="text849"
       aria-label="(ai)">
      <path
         id="path861"
         style="font-style:normal;font-variant:normal;font-weight:normal;font-stretch:normal;font-family:Forte;-inkscape-font-specification:Forte;stroke-width:0.353015;stroke-miterlimit:4;stroke-dasharray:none"
         d="M 4.1726962,7.1272349 Q 3.9386424,7.5678068 3.8147316,7.8775839 3.6908207,8.1804771 3.5462581,8.7036562 3.2777846,9.7637822 3.2777846,10.837676 q 0,2.058297 1.4387425,2.547056 0.2271699,0.08949 0.2271699,0.158331 0,0.165214 -0.1996341,0.323545 -0.1927502,0.151446 -0.5300631,0.247822 -0.3304289,0.08949 -0.6815096,0.08949 -0.4130361,0 -0.8329562,-0.144563 -0.4199201,-0.151447 -0.6746257,-0.392384 -0.426804,-0.41992 -0.6746257,-1.06701 -0.2409377,-0.653974 -0.2409377,-1.397439 0,-0.867376 0.2409377,-1.7691717 Q 1.5981043,8.5246738 2.0455601,7.6986016 2.4930159,6.8656454 3.1194541,6.163484 3.7458922,5.4544386 4.4687054,4.9725631 4.936813,4.662786 5.157099,4.662786 q 0.1583305,0 0.2684735,0.048188 0.1101429,0.048188 0.1101429,0.1307947 0,0.1032591 -0.3648485,0.6333221 -0.426804,0.6470899 -0.7916526,1.2735281 -0.048188,0.089491 -0.2065181,0.3786164 z" />
      <path
         id="path863"
         style="font-style:normal;font-variant:normal;font-weight:normal;font-stretch:normal;font-family:Forte;-inkscape-font-specification:Forte;stroke-width:0.353015;stroke-miterlimit:4;stroke-dasharray:none"
         d="m 11.118587,10.596738 -0.130795,0.0413 q -0.495643,0.137679 -0.715929,0.137679 -0.268473,0 -0.268473,-0.137679 0,-0.04819 0.110143,-0.254706 0.3855,-0.5851341 0.3855,-1.1014292 0,-0.2960093 -0.103259,-0.536947 -0.103259,-0.2478217 -0.22717,-0.2478217 -0.110143,0 -0.3373128,0.2340538 -0.640206,0.6952775 -1.0188225,1.4249751 -0.3717325,0.729697 -0.3717325,1.301063 0,0.378617 0.1514466,0.626439 0.1583305,0.247821 0.3923843,0.247821 0.1996341,0 0.7434651,-0.426804 0.5507148,-0.426804 1.2322248,-1.128965 l 0.185866,-0.151447 z m -0.413036,1.576422 v 0.02754 l -0.02754,-0.02754 q -0.640206,0.750349 -1.1771527,1.232224 -0.5300631,0.474992 -0.9844028,0.715929 -0.4474558,0.240938 -0.8260723,0.240938 -0.7710007,0 -1.273528,-0.516295 -0.5025273,-0.516295 -0.5025273,-1.307948 0,-0.488759 0.2478216,-1.156501 0.2478217,-0.667742 0.6815097,-1.307948 0.7228132,-1.0463579 1.8173589,-1.776055 1.1289655,-0.750349 2.1753239,-0.750349 0.881144,0 1.445626,0.3648486 0.571367,0.3579646 0.571367,0.9086795 0,0.4061522 -0.282241,0.8604919 0.371732,0 0.468107,0.082607 0.09637,0.075723 0.09637,0.3648488 0,-0.02754 -0.03442,0.282241 -0.0413,0.68151 -0.0413,1.273528 0,0.309777 0.0069,0.468108 0.0069,0.15833 0.02754,0.364848 0.02065,0.206519 0.0413,0.330429 0.05507,0.323545 0.178983,0.640206 -0.413037,0.406153 -0.791653,0.598903 -0.378616,0.185866 -0.771001,0.185866 -1.060126,0 -1.060126,-1.776055 0,-0.206518 0.01377,-0.323545 z" />
      <path
         id="path865"
         style="font-style:normal;font-variant:normal;font-weight:normal;font-stretch:normal;font-size:9.16392px;font-family:Forte;-inkscape-font-specification:Forte;baseline-shift:sub;stroke-width:0.353015;stroke-miterlimit:4;stroke-dasharray:none"
         d="m 14.315145,17.040791 q -0.201356,-0.01342 -0.366915,-0.183458 -0.165559,-0.178983 -0.237152,-0.384813 -0.06712,-0.210305 -0.06712,-0.541423 0,-0.738304 0.272949,-1.66454 0.277424,-0.930711 0.62644,-1.346846 0.138712,-0.174508 0.384813,-0.174508 0.259525,0 0.416135,0.237152 0.161085,0.237152 0.161085,0.621965 0,0.568271 -0.165559,1.333422 -0.161085,0.760677 -0.456407,1.583998 -0.116338,0.331119 -0.286372,0.447457 -0.116339,0.07159 -0.272949,0.07159 z m 0.536948,-4.496944 q -0.420609,-0.01342 -0.420609,-0.505626 0,-0.246102 0.120813,-0.568271 0.125288,-0.326643 0.281898,-0.483253 0.08054,-0.08502 0.161085,-0.120814 0.08502,-0.0358 0.214779,-0.0358 0.223729,0 0.326644,0.111864 0.107389,0.10739 0.107389,0.36244 0,0.317695 -0.111864,0.604067 -0.10739,0.281898 -0.290847,0.460881 -0.183457,0.174508 -0.375864,0.174508 z" />
      <path
         id="path867"
         style="font-style:normal;font-variant:normal;font-weight:normal;font-stretch:normal;font-family:Forte;-inkscape-font-specification:Forte;stroke-width:0.353015;stroke-miterlimit:4;stroke-dasharray:none"
         d="m 17.2095,12.276419 q 0.99817,-1.686564 0.99817,-3.3042893 0,-0.6608579 -0.172098,-1.2253406 Q 17.870358,7.1754225 17.553697,6.7623864 17.237036,6.3424663 16.775812,6.0808767 16.603713,5.9845016 16.541758,5.9156623 q -0.06196,-0.075723 -0.06196,-0.1720984 0,-0.213402 0.35108,-0.5920185 0.234054,-0.2340538 0.516296,-0.3717325 0.289125,-0.1445626 0.536946,-0.1445626 0.605787,0 1.184037,0.5920184 0.991287,0.9981707 0.991287,2.9600923 0,0.9844028 -0.261589,1.858663 -0.254706,0.874259 -0.798537,1.67968 -0.406152,0.626438 -0.984403,1.239108 -0.571366,0.612671 -1.073894,0.970635 -0.172098,0.130795 -0.364848,0.206518 -0.185867,0.07572 -0.309777,0.07572 -0.103259,0 -0.165215,-0.06196 -0.06195,-0.06195 -0.06195,-0.165214 0,-0.213402 0.309777,-0.530063 0.433688,-0.509412 0.860492,-1.184037 z" />
    </g>
  </g>
</svg>
